<svg width="164" height="76" viewBox="0 0 164 76" fill="none" xmlns="http://www.w3.org/2000/svg">
<path fill-rule="evenodd" clip-rule="evenodd" d="M163.111 58.1941C166.342 67.1036 158.766 75.4323 149.289 75.4323H16.2807C9.2412 75.4323 2.85984 70.8659 1.40117 63.9791C-1.26191 51.4061 -1.03576 39.3773 10.255 37.2439C23.1106 34.8149 30.6041 39.1386 35.1972 41.7888C35.6259 42.0362 36.0293 42.269 36.4095 42.4803C38.8874 43.8579 41.5951 42.2052 41.4738 39.3727C41.405 37.7639 41.1079 35.5622 40.4374 32.5916C40.4065 32.4548 40.3751 32.3157 40.3431 32.1743C38.0358 21.9638 33.0725 0 47.0896 0C47.8586 0 48.6847 0.0661106 49.5716 0.2039C59.3526 1.72355 63.2139 7.71726 66.1288 12.242C68.3623 15.709 70.0402 18.3135 73.3998 17.382C76.6947 16.4684 78.4799 13.0283 80.2388 9.63881C82.6141 5.06169 84.9415 0.576793 90.8739 2.53012C97.0125 4.55132 98.7999 12.5174 100.158 18.5702C101.084 22.6987 101.811 25.9371 103.582 25.792C105.198 25.6597 106.624 22.7856 108.331 19.3428C111.241 13.4776 114.969 5.96182 121.851 7.54037C127.627 8.86529 129.792 19.1994 131.844 28.9867C133.671 37.7052 135.407 45.9897 139.523 47.0856C143.103 48.0386 145.749 47.2197 148.117 46.4867C151.53 45.4305 154.366 44.5529 158.586 49.4118C160.058 51.1071 161.674 54.2294 163.111 58.1941Z" fill="black" fill-opacity="0.23"/>
</svg>
