<svg width="220" height="96" viewBox="0 0 229 96" fill="none" xmlns="http://www.w3.org/2000/svg">
<path fill-rule="evenodd" clip-rule="evenodd" d="M226.847 92.8004C226.637 94.1945 225.622 95.4025 224.212 95.4025H2.95518C-0.196286 95.4025 -1.07417 93.1939 1.99994 92.5C13.4842 89.9076 26.6394 72.2906 36.3125 56.6309C42.9177 45.9376 59.0362 45.1224 66.038 55.5603C74.6329 68.3732 83.3696 80.6032 82.5 76C79.9272 62.3818 84.3477 35.5377 103 39C114.454 41.1261 116.041 34.5209 117.496 28.4646C118.411 24.6584 119.273 21.0689 122.5 20C126.165 18.7859 127.485 14.2127 128.751 9.82786C130.374 4.20951 131.906 -1.09947 138.168 1.36369C144.862 3.99708 146.984 27.3005 148.632 45.4011C149.729 57.4444 150.616 67.1844 152.5 67C154.294 66.8244 155.782 57.7566 157.587 46.7631C160.527 28.8499 164.306 5.82408 171.614 7.82658C177.85 9.53562 180.188 22.866 182.403 35.4909C184.376 46.7371 186.25 57.4236 190.695 58.8372C194.972 60.1979 200.838 54.0617 206.691 47.9383C213.745 40.5585 220.782 33.1973 225 39C229.135 44.6886 230.377 69.3891 226.847 92.8004Z" fill="#444089" fill-opacity="0.18"/>
</svg>
