<svg width="172" height="96" viewBox="0 0 172 98" fill="none" xmlns="http://www.w3.org/2000/svg">
<path fill-rule="evenodd" clip-rule="evenodd" d="M2.10769 85.182C3.42499 92.4134 9.9435 97.4025 17.2938 97.4025H153.199C163.167 97.4025 170.66 88.369 167.62 78.8758C163.356 65.5597 157.928 54.0698 155 50.0421C150.942 44.4592 158.377 31.1882 164.97 19.4216C167.057 15.696 169.06 12.1212 170.587 8.98904C172.937 4.16919 169.303 0.0999756 163.941 0.0999756C162.345 0.0999756 160.764 0.452103 159.355 1.20342C157.52 2.18221 155.62 3.28551 153.694 4.40443C146.149 8.78836 138.19 13.4121 132.039 11.7266C124.609 9.69036 120.584 19.3852 117.443 26.9509C115.599 31.3918 114.059 35.0992 112.315 35.27C110.313 35.4659 109.44 33.6241 108.245 31.1038C106.626 27.6872 104.416 23.0238 98 20.5C90.6414 17.6053 88.6787 19.0337 85.7903 21.1359C84.3026 22.2185 82.5694 23.48 79.727 24.4215C76.0996 25.6232 74.288 22.2635 71.8765 17.7913C68.7292 11.9548 64.5602 4.22329 53.9997 2.26304C35.3474 -1.19922 8.11935 -1.89163 10.6921 11.7266C12.2058 19.7392 30.0478 40.8944 39.0404 51.5569C39.7999 52.4574 40.4962 53.283 41.1143 54.0196C43.1845 56.4868 42.3485 58.5094 39.6715 56.7186C39.2955 56.4671 38.8988 56.1936 38.4797 55.9047C33.5206 52.4861 25.4299 46.9088 11.5497 50.0421C-0.804497 52.8309 -0.88947 68.7291 2.10769 85.182Z" fill="#302E5A" fill-opacity="0.18"/>
</svg>
