<svg width="213" height="76" viewBox="0 0 213 76" fill="none" xmlns="http://www.w3.org/2000/svg">
<path fill-rule="evenodd" clip-rule="evenodd" d="M0.864887 64.3575C-1.2247 69.545 2.64847 75.4323 8.24104 75.4323H196.976C205.256 75.4323 212.214 69.1074 212.213 60.8273C212.21 37.9848 208.163 14.7177 204.5 10.5C200.848 6.29543 189.577 15.5206 179.423 23.831C169.699 31.7895 161 38.9091 161 32.5916C161 28.9649 166.381 20.2691 172.122 10.9927C172.298 10.7087 172.474 10.4241 172.65 10.1392C175.418 5.66483 172.196 0 166.935 0C164.058 0 161.473 1.79703 160.629 4.5472C156.818 16.9697 154.644 31.7131 153.032 42.6461C151.67 51.8836 150.709 58.401 149.5 58.5C148.404 58.5898 147.28 58.8486 146.049 59.1321C142.372 59.9788 137.735 61.0468 130 58.5C126.425 57.3228 127.433 48.9343 128.637 38.9252C130.909 20.0284 133.877 -4.64475 108 2.53012C104.751 3.43112 108.925 14.9596 113.589 27.8399C115.609 33.4202 117.721 39.2541 119.362 44.5876C122.681 55.3782 106.964 66.2421 96.4225 62.2006C93.9834 61.2655 91.7774 60.3699 90.1127 59.694C88.0879 58.872 85.8977 58.1711 84.728 56.3253C83.2886 54.0539 81.3291 50.2221 78.9733 45.6153C70.1101 28.2831 55.6369 -0.0196228 42.1425 2.53012C24.4207 5.87863 9.43012 43.0937 0.864887 64.3575Z" fill="#444089" fill-opacity="0.18"/>
</svg>
