<svg width="342" height="303" viewBox="0 0 342 303" fill="none" xmlns="http://www.w3.org/2000/svg">
<rect x="146.75" y="108" width="188.5" height="188.5" rx="19.5" fill="#444089" stroke="#A7A2FC" stroke-width="13"/>
<path d="M277.557 166.008L268.531 159.293C266.329 160.064 261.926 160.724 257.192 160.724H218.334C215.031 160.724 208.317 160.394 205.344 159.954V175.585C207.656 175.475 213.71 174.815 218.334 174.815H255.651C253.229 182.63 246.515 193.528 239.249 201.784C228.902 213.343 211.839 226.773 194.116 233.377L205.454 245.266C220.535 238.111 235.176 226.663 246.845 214.334C257.192 224.351 267.43 235.579 274.585 245.486L287.134 234.588C280.64 226.663 267.32 212.572 256.422 203.105C263.797 193.198 269.962 181.419 273.704 172.833C274.695 170.632 276.677 167.219 277.557 166.008Z" fill="white"/>
<g filter="url(#filter0_d_811_445)">
<rect x="7" y="7.25" width="188.5" height="188.5" rx="19.5" fill="#625CBC" stroke="#A7A2FC" stroke-width="13"/>
<path d="M100.6 51.278L86.2895 50.9478C86.3996 52.8191 86.1794 55.4611 86.0694 57.5526C85.8492 59.424 85.629 61.4054 85.4089 63.497C83.9778 63.497 82.5468 63.497 81.0057 63.497C74.2907 63.497 64.6036 62.6163 60.7508 61.9558L61.0811 74.7252C66.2548 74.9454 74.8411 75.3857 80.5653 75.3857C81.7762 75.3857 82.877 75.3857 84.0879 75.3857C83.6476 79.899 83.3173 84.5224 83.0972 89.2558C67.6859 96.5212 56.0173 111.272 56.0173 125.472C56.0173 136.591 62.8423 141.434 70.8782 141.434C76.7125 141.434 82.5468 139.673 87.9407 137.031C88.3811 138.572 88.9315 140.113 89.3718 141.544L102.031 137.691C101.15 135.049 100.27 132.297 99.4992 129.545C107.865 122.61 116.672 111.052 122.616 96.0808C130.212 99.053 134.065 104.887 134.065 111.492C134.065 122.28 125.478 133.068 104.233 135.38L111.498 146.938C138.578 142.865 147.715 127.784 147.715 112.153C147.715 99.3833 139.238 89.3659 126.469 85.1829C127.129 83.0913 128.01 80.7796 128.45 79.5687L115.021 76.3764C114.91 78.0276 114.47 80.7796 114.03 82.9812C113.369 82.9812 112.709 82.9812 112.048 82.9812C106.654 82.9812 100.93 83.7518 95.6464 84.9627C95.7565 81.6603 96.0867 78.2478 96.4169 74.9454C109.957 74.3949 124.708 73.074 135.496 71.0925L135.385 58.3232C123.277 61.1853 111.388 62.6163 97.9581 63.1667C98.2883 60.9651 98.7286 58.9837 99.0589 57.1123C99.4992 55.4611 99.9395 53.4796 100.6 51.278ZM69.0069 122.61C69.0069 116.336 74.5109 107.97 82.7669 102.355C82.9871 109.951 83.8677 117.547 85.0786 124.372C81.1157 126.683 77.1528 128.004 74.0706 128.004C70.548 128.004 69.0069 126.133 69.0069 122.61ZM95.2061 96.9615V96.6312C99.4992 95.3103 104.563 94.3195 110.397 94.2095C106.654 103.126 101.701 109.841 96.527 115.235C95.6464 109.731 95.2061 103.676 95.2061 96.9615Z" fill="white"/>
</g>
<defs>
<filter id="filter0_d_811_445" x="0.5" y="0.75" width="227.5" height="227.5" filterUnits="userSpaceOnUse" color-interpolation-filters="sRGB">
<feFlood flood-opacity="0" result="BackgroundImageFix"/>
<feColorMatrix in="SourceAlpha" type="matrix" values="0 0 0 0 0 0 0 0 0 0 0 0 0 0 0 0 0 0 127 0" result="hardAlpha"/>
<feOffset dx="13" dy="13"/>
<feGaussianBlur stdDeviation="6.5"/>
<feColorMatrix type="matrix" values="0 0 0 0 0.0973366 0 0 0 0 0.061493 0 0 0 0 0.670833 0 0 0 0.05 0"/>
<feBlend mode="normal" in2="BackgroundImageFix" result="effect1_dropShadow_811_445"/>
<feBlend mode="normal" in="SourceGraphic" in2="effect1_dropShadow_811_445" result="shape"/>
</filter>
</defs>
</svg>
