<svg width="101" height="80" viewBox="0 0 101 80" fill="none" xmlns="http://www.w3.org/2000/svg">
<rect x="43.568" y="28.4355" width="54.649" height="48.871" rx="14" fill="#58669F" stroke="#C8CCDF" stroke-width="4"/>
<path d="M75.2315 38.1698L73.2238 36.6763C72.7341 36.8476 71.7547 36.9946 70.7019 36.9946H62.0588C61.3243 36.9946 59.8307 36.9211 59.1696 36.8232V40.3C59.6838 40.2755 61.0305 40.1286 62.0588 40.1286H70.3591C69.8204 41.867 68.3269 44.2909 66.7109 46.1273C64.4093 48.6982 60.6142 51.6853 56.6722 53.1543L59.1941 55.7987C62.5485 54.2072 65.805 51.6608 68.4003 48.9185C70.7019 51.1466 72.9789 53.644 74.5704 55.8476L77.3617 53.4237C75.9171 51.6608 72.9544 48.5268 70.5305 46.4211C72.1709 44.2175 73.5421 41.5976 74.3745 39.6879C74.5949 39.1982 75.0356 38.4391 75.2315 38.1698Z" fill="#C8CCDF"/>
<g filter="url(#filter0_d_447_577)">
<rect x="2.89209" y="2" width="54.649" height="48.871" rx="14" fill="#7885B5" stroke="#C8CCDF" stroke-width="4"/>
<path d="M26.2798 8.62476L23.0968 8.55131C23.1213 8.96754 23.0724 9.55517 23.0479 10.0204C22.9989 10.4366 22.9499 10.8773 22.901 11.3425C22.5827 11.3425 22.2644 11.3425 21.9216 11.3425C20.428 11.3425 18.2734 11.1467 17.4164 10.9998L17.4899 13.84C18.6407 13.8889 20.5504 13.9869 21.8236 13.9869C22.093 13.9869 22.3378 13.9869 22.6071 13.9869C22.5092 14.9907 22.4358 16.0191 22.3868 17.0719C18.959 18.6879 16.3636 21.9688 16.3636 25.1273C16.3636 27.6003 17.8816 28.6776 19.669 28.6776C20.9667 28.6776 22.2644 28.2858 23.4641 27.6982C23.562 28.041 23.6845 28.3838 23.7824 28.7021L26.5981 27.8451C26.4022 27.2575 26.2064 26.6454 26.035 26.0333C27.8958 24.4907 29.8546 21.9199 31.1767 18.59C32.8662 19.251 33.7231 20.5487 33.7231 22.0178C33.7231 24.4173 31.8133 26.8168 27.0878 27.3309L28.7038 29.9018C34.727 28.9959 36.7592 25.6415 36.7592 22.1647C36.7592 19.3245 34.8739 17.0964 32.0337 16.166C32.1806 15.7008 32.3765 15.1866 32.4744 14.9173L29.4873 14.2072C29.4628 14.5745 29.3649 15.1866 29.2669 15.6763C29.12 15.6763 28.9731 15.6763 28.8262 15.6763C27.6265 15.6763 26.3533 15.8477 25.178 16.117C25.2025 15.3825 25.276 14.6235 25.3494 13.8889C28.361 13.7665 31.6419 13.4727 34.0414 13.032L34.0169 10.1918C31.3236 10.8284 28.6793 11.1467 25.6922 11.2691C25.7657 10.7794 25.8636 10.3387 25.937 9.92244C26.035 9.55517 26.1329 9.11445 26.2798 8.62476ZM19.2528 24.4907C19.2528 23.0951 20.477 21.2343 22.3133 19.9856C22.3623 21.675 22.5582 23.3644 22.8275 24.8825C21.9461 25.3967 21.0646 25.6905 20.3791 25.6905C19.5955 25.6905 19.2528 25.2742 19.2528 24.4907ZM25.0801 18.7858V18.7124C26.035 18.4186 27.1613 18.1982 28.4589 18.1737C27.6265 20.157 26.5247 21.6505 25.3739 22.8503C25.178 21.626 25.0801 20.2794 25.0801 18.7858Z" fill="#C8CCDF"/>
</g>
<defs>
<filter id="filter0_d_447_577" x="0.89209" y="0" width="66.649" height="60.871" filterUnits="userSpaceOnUse" color-interpolation-filters="sRGB">
<feFlood flood-opacity="0" result="BackgroundImageFix"/>
<feColorMatrix in="SourceAlpha" type="matrix" values="0 0 0 0 0 0 0 0 0 0 0 0 0 0 0 0 0 0 127 0" result="hardAlpha"/>
<feOffset dx="4" dy="4"/>
<feGaussianBlur stdDeviation="2"/>
<feColorMatrix type="matrix" values="0 0 0 0 0.0973366 0 0 0 0 0.061493 0 0 0 0 0.670833 0 0 0 0.05 0"/>
<feBlend mode="normal" in2="BackgroundImageFix" result="effect1_dropShadow_447_577"/>
<feBlend mode="normal" in="SourceGraphic" in2="effect1_dropShadow_447_577" result="shape"/>
</filter>
</defs>
</svg>
