<?xml version="1.0" standalone="no"?>
<!DOCTYPE svg PUBLIC "-//W3C//DTD SVG 20010904//EN"
 "http://www.w3.org/TR/2001/REC-SVG-20010904/DTD/svg10.dtd">
<svg version="1.0" xmlns="http://www.w3.org/2000/svg"
 width="50.000000pt" height="52.000000pt" viewBox="0 0 50.000000 52.000000"
 preserveAspectRatio="xMidYMid meet">

<g transform="translate(0.000000,52.000000) scale(0.100000,-0.100000)"
fill="#E4EEFF" stroke="none">
<path d="M100 460 c-18 -18 -20 -33 -20 -191 0 -164 -1 -171 -20 -176 -13 -3
-20 -12 -18 -22 3 -14 27 -16 208 -16 181 0 205 2 208 16 2 10 -5 19 -18 22
-19 5 -20 12 -20 176 0 222 9 211 -170 211 -117 0 -132 -2 -150 -20z m264 -26
c24 -9 24 -329 0 -338 -20 -8 -208 -8 -228 0 -14 5 -16 30 -16 169 0 121 3
165 13 168 18 8 212 8 231 1z"/>
<path d="M277 383 c-9 -8 12 -33 28 -33 11 0 25 20 25 36 0 7 -46 5 -53 -3z"/>
<path d="M170 350 c0 -17 5 -21 28 -18 36 4 36 32 0 36 -23 3 -28 -1 -28 -18z"/>
<path d="M277 303 c-17 -16 -5 -33 23 -33 23 0 30 4 30 20 0 14 -7 20 -23 20
-13 0 -27 -3 -30 -7z"/>
<path d="M172 248 c7 -19 45 -21 51 -4 5 12 -1 16 -24 16 -20 0 -29 -4 -27
-12z"/>
<path d="M276 191 c-9 -13 19 -32 38 -25 25 10 19 34 -8 34 -14 0 -27 -4 -30
-9z"/>
<path d="M170 160 c0 -16 7 -20 30 -20 23 0 30 4 30 20 0 16 -7 20 -30 20 -23
0 -30 -4 -30 -20z"/>
</g>
</svg>
