<svg width="39" height="37" viewBox="0 0 39 37" fill="none" xmlns="http://www.w3.org/2000/svg">
<path d="M38.9996 7.81768C39.0123 8.23953 38.7151 8.59418 38.4132 8.88911L37.7994 9.48868C37.6278 9.65637 37.5152 9.87722 37.6019 10.101C37.867 10.7854 37.8259 11.7446 37.1288 11.9744C36.9773 12.0244 36.8157 12.0772 36.644 12.133C36.5022 12.179 36.3521 12.1939 36.203 12.1938C35.3622 12.1935 34.6457 12.5541 34.0964 12.9992C33.278 13.6625 33.1789 14.805 33.4404 15.8255C33.731 16.9595 34.5293 17.8764 35.4027 18.6558C38.0565 21.024 39.3951 25.3376 38.8118 29.0856C38.3353 32.1474 34.5198 34.3716 30.574 35.7317C27.4066 36.8235 24.0208 36.9978 20.6705 36.9978H15.1614C14.9231 37.0257 13.2074 36.7917 8.2509 35.6327C3.29443 34.4737 1.28087 28.5377 0.893646 25.7146L0.237053 22.6235C0.0802803 21.8855 0.054821 21.1255 0.161839 20.3787C0.309898 19.3454 0.665318 18.3261 1.37488 17.5605C1.66019 17.2527 1.83301 17.1557 1.66809 17.6074C1.25108 18.7496 8.81685 19.864 9.29343 19.5019C9.77001 19.1397 16.5018 18.9447 17.6634 19.0004C18.0985 19.0212 18.79 18.9574 19.4983 18.8655C20.685 18.7116 21.4667 17.5828 21.2688 16.4026C21.1906 15.9367 20.9628 15.5111 20.635 15.1709C19.4854 13.9775 17.8273 11.9907 17.6634 10.726C17.4728 9.255 17.584 8.12575 17.6634 7.745C17.822 7.11449 18.0301 6.49748 18.2858 5.8997L18.6166 5.12617L19.54 3.59388C20.1124 2.87383 20.8018 2.24009 21.5655 1.72727L22.8159 1.10593C23.2526 0.888972 23.7048 0.705007 24.1689 0.555573L24.3624 0.49325C24.9778 0.295121 25.6146 0.171536 26.2594 0.125147L26.8507 0.0826024C27.6077 0.028137 28.3677 0.135828 29.0797 0.398483C29.7621 0.650194 30.3859 1.03879 30.9126 1.5404L31.0908 1.71008C31.5297 2.12811 31.9083 2.60528 32.2156 3.1278L33.2744 4.92841C33.3518 5.06008 33.4197 5.19712 33.4777 5.33846C33.8549 6.25885 34.6353 6.9664 35.6159 7.13292C36.3685 7.26072 37.2179 7.35345 37.942 7.31728C38.3626 7.29627 38.9016 7.26437 38.9841 7.67735C38.9927 7.72031 38.9981 7.767 38.9996 7.81768Z" fill="#275CB3" fill-opacity="0.44"/>
</svg>
