<svg width="196" height="83" viewBox="0 0 196 83" fill="none" xmlns="http://www.w3.org/2000/svg">
<path d="M176.41 26.3115L158.715 7.90796L164.447 6.37212L177.469 20.3128L181.643 1.76463L187.33 0.2407L181.075 25.0614L183.92 35.6808L179.255 36.9309L176.41 26.3115Z" fill="black"/>
<path d="M114.484 54.2861L105.853 22.0725L114.784 19.6795C117.983 18.8223 120.824 18.5848 123.308 18.967C125.783 19.3196 127.935 20.124 129.764 21.3801C131.585 22.6067 133.068 24.1141 134.214 25.9025C135.39 27.6829 136.24 29.5506 136.763 31.5056C137.406 33.905 137.56 36.1973 137.225 38.3825C136.912 40.5302 136.182 42.4877 135.036 44.2551C133.92 46.0145 132.499 47.5225 130.772 48.7789C129.037 50.0058 127.103 50.9049 124.97 51.4764L114.484 54.2861ZM117.903 48.5603L122.879 47.2268C125.219 46.5998 127.174 45.5999 128.743 44.227C130.311 42.8542 131.384 41.1699 131.96 39.174C132.566 37.1702 132.54 34.939 131.881 32.4804C131.342 30.4662 130.537 28.8246 129.466 27.5557C128.418 26.2492 127.219 25.2688 125.869 24.6146C124.511 23.9308 123.087 23.5344 121.597 23.4256C120.108 23.3167 118.652 23.4528 117.23 23.8338L111.676 25.322L117.903 48.5603Z" fill="black"/>
<path d="M57.3411 69.5976L62.5263 32.2531L62.7929 32.1817L85.9557 61.9304L80.5793 63.371L75.2578 56.1295L63.1277 59.3798L61.9621 68.3594L57.3411 69.5976ZM63.6557 54.9522L72.5867 52.5592L65.2559 42.6178L63.6557 54.9522Z" fill="black"/>
<path d="M0.227173 50.3748L21.3327 44.7196L22.5351 49.2073L6.05064 53.6243L8.53892 62.9107L23.2461 58.9699L24.4486 63.4576L9.7414 67.3984L12.2773 76.8625L29.3839 72.2788L30.5863 76.7665L8.85879 82.5884L0.227173 50.3748Z" fill="black"/>
</svg>
