<svg width="119" height="301" viewBox="0 0 119 301" fill="none" xmlns="http://www.w3.org/2000/svg">
<path fill-rule="evenodd" clip-rule="evenodd" d="M37.1266 42.8636L38.7549 131.813C45.478 123.344 55.1515 112.005 68.8326 97.0539L68.8542 97.0302L68.876 97.0066C75.2104 90.1334 76.2202 85.1887 76.0964 81.9557C75.9544 78.2486 74.1674 73.3925 69.2304 67.3856C61.8581 58.4153 49.9349 49.8881 37.1266 42.8636ZM39.8733 192.906L41.827 299.639L5.83307 300.298L0.824392 26.6822C0.49624 8.7558 18.7818 -5.36004 36.75 2.57284C56.3953 11.2461 81.4777 25.5891 97.0427 44.5277C104.988 54.1949 111.526 66.3739 112.07 80.5779C112.632 95.2465 106.697 109.08 95.3705 121.38C81.1345 136.938 71.7446 148.058 65.7419 155.73C64.1751 157.732 62.861 159.472 61.7666 160.97L118.973 245.896L89.1146 266.009L39.8733 192.906Z" fill="#002E6A"/>
</svg>
