<svg width="179" height="315" viewBox="0 0 179 315" fill="none" xmlns="http://www.w3.org/2000/svg">
<path fill-rule="evenodd" clip-rule="evenodd" d="M137.306 11.0972C151.951 24.0671 160.235 45.8292 163.88 59.8142L127.108 69.3972C125.685 63.9362 123.48 57.6354 120.652 51.9117C117.729 45.9978 114.696 41.8332 112.112 39.5451C110.91 38.4804 110.149 38.1297 109.887 38.0341C109.778 37.9944 109.776 37.9956 109.767 38.0009C109.764 38.0027 109.76 38.0049 109.751 38.0063C109.527 38.0394 105.941 38.7402 99.3929 46.5207C95.0246 51.7114 92.4983 62.4309 96.0259 81.5064C99.3896 99.695 107.445 120.875 117.255 141.645C126.974 162.224 137.969 181.476 146.582 195.612C150.876 202.659 154.543 208.378 157.113 212.286C158.399 214.243 159.396 215.723 160.047 216.673C160.22 216.926 160.359 217.127 160.466 217.281C160.749 217.64 160.971 217.945 161.073 218.087C161.374 218.503 161.687 218.959 161.986 219.407C162.605 220.334 163.394 221.569 164.284 223.055C166.057 226.016 168.363 230.189 170.576 235.116C174.669 244.229 179.898 259.051 177.603 274.182C176.375 282.274 172.963 290.585 166.179 297.619C159.494 304.55 150.641 309.101 140.357 311.7C120.469 316.727 92.2365 315.213 53.1362 306.255C37.1292 302.588 23.9281 298.481 13.3559 293.874C2.96002 289.344 -6.00685 283.856 -12.4382 276.839C-19.2709 269.384 -23.3363 259.993 -22.5304 249.447C-21.7798 239.627 -16.997 231.531 -11.9167 225.464C-1.99008 213.608 13.9701 203.706 29.4324 195.933C45.4494 187.881 63.2668 180.981 78.9757 175.868L90.736 212.003C76.3627 216.681 60.4027 222.895 46.5004 229.884C32.0433 237.152 21.9421 244.218 17.2185 249.859C16.6429 250.546 16.2354 251.109 15.9487 251.549C17.5956 253.173 21.2548 255.865 28.5363 259.038C36.253 262.4 47.0259 265.871 61.6222 269.215C99.0302 277.785 120.066 277.634 131.045 274.859C136.195 273.557 138.174 271.916 138.827 271.239C139.38 270.666 139.81 269.954 140.033 268.482C140.639 264.486 139.206 258.02 135.912 250.685C134.431 247.388 132.862 244.548 131.684 242.581C131.139 241.671 130.706 240.995 130.442 240.596C130.356 240.486 130.298 240.409 130.276 240.379C130.055 240.088 129.854 239.807 129.73 239.634C129.445 239.234 129.092 238.725 128.695 238.145C127.887 236.965 126.755 235.283 125.361 233.163C122.57 228.917 118.668 222.83 114.131 215.384C105.082 200.533 93.3683 180.05 82.8944 157.874C72.5111 135.889 62.8904 111.295 58.6595 88.4166C54.5926 66.4252 54.5534 40.7855 70.3188 22.0525C79.8778 10.6941 91.0765 2.35832 104.181 0.41663C117.983 -1.62835 129.334 4.0372 137.306 11.0972ZM133.198 243.47C133.234 243.501 133.268 243.531 133.301 243.559C133.882 244.027 135.563 245.187 136.688 245.825C137.039 245.979 137.515 246.133 138.089 246.279C135.982 245.269 133.98 244.06 133.198 243.47ZM143.543 247.089C146.576 247.309 150.002 247.228 152.761 246.546C158.785 242.568 164.089 232.894 164.494 228.992C163.083 235.804 152.557 245.322 143.543 247.089ZM158.013 214.703C158.192 214.86 158.362 215.015 158.521 215.165C158.361 215.016 158.181 214.853 158.013 214.703ZM152.865 211.693C151.999 211.279 151.116 210.899 150.293 210.61C149.377 210.607 148.43 210.706 147.466 210.893C149.576 211.048 151.495 211.348 152.865 211.693Z" fill="#D9D9D9"/>
</svg>
