<svg width="212" height="321" viewBox="0 0 212 321" fill="none" xmlns="http://www.w3.org/2000/svg">
<path fill-rule="evenodd" clip-rule="evenodd" d="M121.51 37.2358C127.02 43.4531 131.721 50.2606 135.236 56.2659L102.441 75.4617C99.9698 71.2396 96.6825 66.5146 93.0699 62.4379C89.4291 58.3293 86.2671 55.7981 84.0555 54.6279C83.2037 55.7195 81.8581 57.8292 80.2978 61.6896C78.4275 66.3167 78.7896 75.504 86.3945 90.8121C93.5763 105.269 105.249 121.184 118.268 136.393C131.159 151.454 144.744 165.102 155.153 174.999C160.342 179.932 164.695 183.89 167.717 186.576C169.23 187.921 170.39 188.929 171.137 189.569C171.311 189.718 171.453 189.839 171.566 189.935C171.895 190.182 172.154 190.392 172.272 190.489C172.645 190.792 173.031 191.122 173.394 191.441C174.149 192.102 175.115 192.984 176.221 194.052C178.427 196.18 181.37 199.219 184.428 202.928C190.068 209.767 198.155 221.312 200.163 235.015C201.236 242.336 200.607 250.567 196.69 258.647C192.801 266.671 186.377 273.088 178.279 278.045C162.756 287.545 138.949 292.999 105.214 294.696C78.6155 296.033 57.2781 293.745 43.3872 284.865C35.5579 279.86 29.7192 272.499 27.6473 263.049C25.71 254.214 27.5793 245.865 30.2472 239.218C35.431 226.301 46.0837 213.768 56.6294 203.405C67.5944 192.629 80.2832 182.44 91.6981 174.299L113.762 205.238C103.547 212.523 92.4815 221.45 83.2642 230.508C73.6276 239.978 67.6702 247.996 65.5131 253.371C65.4752 253.465 65.4394 253.557 65.4057 253.645C69.8233 255.537 80.7192 257.879 103.306 256.743C135.226 255.138 151.207 250.061 158.442 245.633C161.722 243.626 162.419 242.231 162.496 242.072L162.501 242.061C162.557 241.947 162.724 241.61 162.565 240.526C162.098 237.343 159.511 232.44 155.11 227.103C153.147 224.723 151.229 222.742 149.835 221.397C149.231 220.814 148.76 220.384 148.466 220.123C148.396 220.069 148.347 220.031 148.326 220.014C148.05 219.8 147.799 219.593 147.652 219.472C147.309 219.189 146.887 218.833 146.42 218.432C145.465 217.614 144.127 216.449 142.471 214.977C139.155 212.03 134.487 207.784 128.969 202.538C117.966 192.077 103.401 177.461 89.3996 161.104C75.5257 144.896 61.5632 126.239 52.3627 107.719C43.5852 90.0503 36.8181 67.8569 45.0669 47.4492C49.9362 35.4026 57.1989 24.7416 68.4518 19.3967C80.4839 13.6817 92.261 16.2301 100.858 20.5403C109.157 24.7012 116.157 31.1942 121.51 37.2358ZM151.906 222.224C151.953 222.247 151.998 222.269 152.04 222.289C152.731 222.595 154.693 223.294 155.977 223.625C156.368 223.683 156.882 223.704 157.493 223.688C155.12 223.256 152.816 222.595 151.906 222.224ZM163.279 222.908C166.379 222.237 169.775 221.134 172.324 219.598C176.858 213.979 178.996 203.343 178.292 199.678C178.899 206.345 171.643 218.523 163.279 222.908ZM168.427 188.011C168.694 188.142 168.946 188.274 169.18 188.401C168.947 188.278 168.672 188.135 168.427 188.011ZM162.627 186.459C161.638 186.28 160.638 186.14 159.723 186.079C158.77 186.354 157.822 186.746 156.888 187.234C159.088 186.759 161.137 186.501 162.627 186.459Z" fill="#D9D9D9"/>
<path fill-rule="evenodd" clip-rule="evenodd" d="M145.207 213.971C145.907 213.527 146.834 213.735 147.277 214.434C148.235 215.944 149.636 217.178 151.279 218.445C151.656 218.736 152.052 219.032 152.457 219.336C153.743 220.299 155.121 221.332 156.295 222.478C157.013 223.18 158.557 224.492 160.142 225.631C160.932 226.199 161.701 226.7 162.357 227.056C162.686 227.233 162.963 227.362 163.185 227.444C163.398 227.523 163.499 227.536 163.512 227.538C163.514 227.538 163.514 227.538 163.514 227.538C164.342 227.56 164.996 228.248 164.974 229.077C164.953 229.905 164.264 230.559 163.436 230.537C162.592 230.515 161.67 230.095 160.93 229.694C160.118 229.255 159.236 228.674 158.391 228.067C156.706 226.856 155.043 225.449 154.199 224.625C153.178 223.628 152.025 222.763 150.78 221.83C150.346 221.505 149.901 221.171 149.447 220.821C147.755 219.516 145.997 218.018 144.744 216.041C144.3 215.341 144.508 214.415 145.207 213.971Z" fill="#D9D9D9"/>
<path fill-rule="evenodd" clip-rule="evenodd" d="M162.656 211.121C163.451 210.886 164.285 211.339 164.521 212.133C165.189 214.39 166.289 216.142 167.607 217.868C168.046 218.443 168.535 219.045 169.046 219.673C170.001 220.848 171.03 222.114 171.937 223.458C172.4 224.144 172.218 225.077 171.532 225.54C170.845 226.003 169.912 225.822 169.449 225.135C168.604 223.881 167.746 222.829 166.857 221.74C166.325 221.087 165.781 220.42 165.223 219.689C163.792 217.814 162.458 215.731 161.644 212.985C161.409 212.191 161.862 211.356 162.656 211.121Z" fill="#D9D9D9"/>
<path fill-rule="evenodd" clip-rule="evenodd" d="M180.617 199.254C180.954 200.01 180.615 200.897 179.858 201.234C179.858 201.234 179.858 201.235 179.857 201.235C179.843 201.24 179.621 201.329 179.549 202.124C179.478 202.905 179.604 203.972 179.872 205.197C180.256 206.944 180.833 208.646 181.274 209.948C181.462 210.504 181.626 210.987 181.739 211.369C181.974 212.163 181.521 212.998 180.727 213.233C179.932 213.468 179.098 213.015 178.862 212.221C178.794 211.99 178.671 211.625 178.515 211.166C178.071 209.851 177.364 207.764 176.942 205.84C176.653 204.52 176.448 203.095 176.561 201.852C176.672 200.64 177.141 199.161 178.636 198.494C179.393 198.157 180.28 198.497 180.617 199.254Z" fill="#D9D9D9"/>
<path fill-rule="evenodd" clip-rule="evenodd" d="M145.554 182.861C151.332 179.195 159.038 180.751 162.765 186.337C163.848 187.96 165.317 189.713 167.355 192.085C167.474 192.223 167.595 192.364 167.718 192.508C169.516 194.598 171.765 197.213 173.685 199.952C174.094 200.536 174.523 201.168 174.912 201.74C174.961 201.812 175.009 201.883 175.056 201.953C175.504 202.611 175.925 203.228 176.353 203.833C177.064 204.84 177.68 205.653 178.223 206.289C183.094 206.845 187.347 210.193 188.701 215.074C190.487 221.512 186.552 228.18 179.913 229.967C174.675 231.377 170.055 230.086 166.842 228.389C163.822 226.796 161.523 224.606 159.95 222.891C157.498 220.219 155.149 216.746 153.8 214.751C153.506 214.317 153.26 213.953 153.07 213.682C151.85 211.941 150.308 210.147 148.249 207.749L148.189 207.679C146.286 205.464 143.859 202.639 141.842 199.615C138.115 194.029 139.777 186.528 145.554 182.861Z" fill="#D9D9D9"/>
<path fill-rule="evenodd" clip-rule="evenodd" d="M161.44 213.965C159.871 208.669 162.893 203.105 168.188 201.537L168.319 201.498C173.615 199.929 179.179 202.95 180.748 208.246C182.316 213.541 179.295 219.105 174 220.674L173.868 220.713C168.573 222.282 163.008 219.26 161.44 213.965Z" fill="#D9D9D9"/>
<path fill-rule="evenodd" clip-rule="evenodd" d="M173.696 200.593C173.725 200.647 173.748 200.706 173.767 200.757C173.91 201.153 174.025 201.57 174.129 201.951C174.178 202.128 174.224 202.297 174.27 202.453C174.37 202.789 174.341 203.268 174.244 203.658C174.194 203.862 174.116 204.078 174.001 204.264C173.895 204.435 173.726 204.632 173.468 204.723C173.465 204.927 173.482 205.102 173.525 205.245C173.603 205.509 173.452 205.788 173.187 205.866C172.922 205.944 172.644 205.793 172.566 205.529C172.437 205.093 172.457 204.602 172.506 204.177C172.538 203.898 172.59 203.598 172.635 203.341C172.657 203.215 172.678 203.099 172.693 203C172.713 202.87 172.72 202.643 172.716 202.354C172.713 202.145 172.705 201.925 172.698 201.714C172.696 201.641 172.693 201.569 172.691 201.498C172.683 201.247 172.676 200.979 172.695 200.82C172.699 200.783 172.709 200.704 172.742 200.624C172.757 200.587 172.799 200.493 172.895 200.413C173.022 200.308 173.204 200.262 173.381 200.32C173.516 200.364 173.594 200.451 173.622 200.484C173.657 200.526 173.681 200.566 173.696 200.593ZM173.689 200.929C173.689 200.929 173.689 200.931 173.688 200.934C173.689 200.93 173.689 200.929 173.689 200.929Z" fill="#D9D9D9"/>
</svg>
