<svg width="167" height="315" viewBox="0 0 167 315" fill="none" xmlns="http://www.w3.org/2000/svg">
<path fill-rule="evenodd" clip-rule="evenodd" d="M125.936 11.0972C140.581 24.0671 148.866 45.8292 152.51 59.8142L115.739 69.3972C114.315 63.9362 112.111 57.6354 109.282 51.9117C106.359 45.9978 103.326 41.8332 100.742 39.5451C99.5402 38.4804 98.779 38.1297 98.5174 38.0341C98.4086 37.9944 98.4065 37.9956 98.3971 38.0009C98.394 38.0027 98.3901 38.0049 98.3811 38.0063C98.1571 38.0394 94.5713 38.7402 88.0233 46.5207C83.6549 51.7114 81.1286 62.4309 84.6563 81.5064C88.0199 99.695 96.0755 120.875 105.885 141.645C115.604 162.224 126.6 181.476 135.213 195.612C139.506 202.659 143.173 208.378 145.743 212.286C147.03 214.243 148.027 215.723 148.677 216.673C148.85 216.926 148.989 217.127 149.097 217.281C149.38 217.64 149.601 217.945 149.704 218.087C150.005 218.503 150.318 218.959 150.617 219.407C151.236 220.334 152.024 221.569 152.914 223.055C154.688 226.016 156.994 230.189 159.206 235.116C163.3 244.229 168.529 259.051 166.233 274.182C165.006 282.274 161.594 290.585 154.809 297.619C148.125 304.55 139.271 309.101 128.987 311.7C109.099 316.727 80.8669 315.213 41.7665 306.255C25.7595 302.588 12.5584 298.481 1.98632 293.874C-8.40961 289.344 -17.3765 283.856 -23.8078 276.839C-30.6405 269.384 -34.7059 259.993 -33.9 249.447C-33.1495 239.627 -28.3666 231.531 -23.2864 225.464C-13.3597 213.608 2.60045 203.706 18.0628 195.933C34.0798 187.881 51.8972 180.981 67.6061 175.868L79.3664 212.003C64.9931 216.681 49.0331 222.895 35.1308 229.884C20.6737 237.152 10.5725 244.218 5.84884 249.859C5.27332 250.546 4.86575 251.109 4.57911 251.549C6.22599 253.173 9.88516 255.865 17.1667 259.038C24.8834 262.4 35.6563 265.871 50.2526 269.215C87.6606 277.785 108.697 277.634 119.675 274.859C124.825 273.557 126.804 271.916 127.458 271.239C128.01 270.666 128.44 269.954 128.663 268.482C129.269 264.486 127.837 258.02 124.542 250.685C123.062 247.388 121.493 244.548 120.314 242.581C119.769 241.671 119.336 240.995 119.072 240.596C118.987 240.486 118.929 240.409 118.906 240.379C118.686 240.088 118.484 239.807 118.36 239.634C118.076 239.234 117.722 238.725 117.325 238.145C116.517 236.965 115.385 235.283 113.992 233.163C111.2 228.917 107.298 222.83 102.762 215.384C93.7129 200.533 81.9986 180.05 71.5248 157.874C61.1415 135.889 51.5208 111.295 47.2899 88.4166C43.223 66.4252 43.1838 40.7855 58.9492 22.0525C68.5082 10.6941 79.7069 2.35832 92.8116 0.41663C106.613 -1.62835 117.964 4.0372 125.936 11.0972ZM121.828 243.47C121.864 243.501 121.899 243.531 121.931 243.559C122.513 244.027 124.193 245.187 125.319 245.825C125.669 245.979 126.145 246.133 126.72 246.279C124.612 245.269 122.61 244.06 121.828 243.47ZM132.174 247.089C135.206 247.309 138.632 247.228 141.391 246.546C147.416 242.568 152.719 232.894 153.124 228.992C151.714 235.804 141.188 245.322 132.174 247.089ZM146.644 214.703C146.823 214.86 146.993 215.015 147.151 215.165C146.991 215.016 146.811 214.853 146.644 214.703ZM141.496 211.693C140.63 211.279 139.747 210.899 138.924 210.61C138.007 210.607 137.06 210.706 136.096 210.893C138.206 211.048 140.125 211.348 141.496 211.693Z" fill="#9D9D9D"/>
</svg>
