<svg width="120" height="302" viewBox="0 0 120 302" fill="none" xmlns="http://www.w3.org/2000/svg">
<path fill-rule="evenodd" clip-rule="evenodd" d="M37.0667 42.9292L38.743 132.289C45.4613 123.796 55.1258 112.428 68.7914 97.442L68.813 97.4183L68.8348 97.3946C75.1649 90.5023 76.1897 85.5231 76.063 82.2388C75.918 78.4815 74.1122 73.5853 69.1683 67.5496C61.7911 58.543 49.8702 49.9827 37.0667 42.9292ZM39.8915 193.516L41.9007 300.625L5.90707 301.3L0.756359 26.7203C0.419708 8.77362 18.7407 -5.35624 36.7193 2.61695C56.3738 11.3333 81.4551 25.7373 97.0183 44.7377C104.962 54.4358 111.488 66.6363 112.036 80.8506C112.603 95.5275 106.692 109.386 95.3728 121.72C81.1325 137.338 71.7436 148.496 65.7442 156.193C64.1658 158.218 62.8441 159.975 61.7457 161.486L119.044 246.8L89.1582 266.872L39.8915 193.516Z" fill="#275CB3"/>
</svg>
