<svg width="142" height="338" viewBox="0 0 142 338" fill="none" xmlns="http://www.w3.org/2000/svg">
<path fill-rule="evenodd" clip-rule="evenodd" d="M76.3803 43.4418L60.7045 157.106C62.3256 155.57 64.0769 153.957 65.9579 152.262C75.4054 143.754 89.3985 132.112 109.696 116.502L109.722 116.482L109.747 116.463C119.191 109.253 121.498 103.266 121.918 99.1055C122.393 94.3917 120.83 88.0875 115.565 80.0221C107.145 67.1238 92.1343 54.135 76.3803 43.4418ZM53.9248 206.265L35.8313 337.459L0.168823 332.541L42.8833 22.8226C45.2927 5.35222 64.8317 -5.67304 81.3148 3.99956C102.963 16.7031 130.337 36.7939 145.71 60.3429C153.521 72.3077 159.334 86.8611 157.736 102.715C156.083 119.114 146.878 133.4 131.618 145.058C111.785 160.311 98.5774 171.333 90.05 179.013C87.4307 181.372 85.2922 183.38 83.565 185.069L136.755 290.993L104.584 307.148L53.9248 206.265Z" fill="#275CB3"/>
</svg>
