<svg width="202" height="321" viewBox="0 0 202 321" fill="none" xmlns="http://www.w3.org/2000/svg">
<path fill-rule="evenodd" clip-rule="evenodd" d="M111.51 37.2358C117.02 43.4531 121.721 50.2606 125.236 56.2659L92.4411 75.4617C89.9698 71.2396 86.6825 66.5146 83.0699 62.4379C79.4291 58.3293 76.2671 55.7981 74.0555 54.6279C73.2037 55.7195 71.8581 57.8292 70.2978 61.6896C68.4275 66.3167 68.7896 75.504 76.3945 90.8121C83.5763 105.269 95.2491 121.184 108.268 136.393C121.159 151.454 134.744 165.102 145.153 174.999C150.342 179.932 154.695 183.89 157.717 186.576C159.23 187.921 160.39 188.929 161.137 189.569C161.311 189.718 161.453 189.839 161.566 189.935C161.895 190.182 162.154 190.392 162.272 190.489C162.645 190.792 163.031 191.122 163.394 191.441C164.149 192.102 165.115 192.984 166.221 194.052C168.427 196.18 171.37 199.219 174.428 202.928C180.068 209.767 188.155 221.312 190.163 235.015C191.236 242.336 190.607 250.567 186.69 258.647C182.801 266.671 176.377 273.088 168.279 278.045C152.756 287.545 128.949 292.999 95.2143 294.696C68.6155 296.033 47.2781 293.745 33.3872 284.865C25.5579 279.86 19.7192 272.499 17.6473 263.049C15.71 254.214 17.5793 245.865 20.2472 239.218C25.431 226.301 36.0837 213.768 46.6294 203.405C57.5944 192.629 70.2832 182.44 81.6981 174.299L103.762 205.238C93.5473 212.523 82.4815 221.45 73.2642 230.508C63.6276 239.978 57.6702 247.996 55.5131 253.371C55.4752 253.465 55.4394 253.557 55.4057 253.645C59.8233 255.537 70.7192 257.879 93.3059 256.743C125.226 255.138 141.207 250.061 148.442 245.633C151.722 243.626 152.419 242.231 152.496 242.072L152.501 242.061C152.557 241.947 152.724 241.61 152.565 240.526C152.098 237.343 149.511 232.44 145.11 227.103C143.147 224.723 141.229 222.742 139.835 221.397C139.231 220.814 138.76 220.384 138.466 220.123C138.396 220.069 138.347 220.031 138.326 220.014C138.05 219.8 137.799 219.593 137.652 219.472C137.309 219.189 136.887 218.833 136.42 218.432C135.465 217.614 134.127 216.449 132.471 214.977C129.155 212.03 124.487 207.784 118.969 202.538C107.966 192.077 93.4009 177.461 79.3996 161.104C65.5257 144.896 51.5632 126.239 42.3627 107.719C33.5852 90.0503 26.8181 67.8569 35.0669 47.4492C39.9362 35.4026 47.1989 24.7416 58.4518 19.3967C70.4839 13.6817 82.261 16.2301 90.8579 20.5403C99.1569 24.7012 106.157 31.1942 111.51 37.2358ZM141.906 222.224C141.953 222.247 141.998 222.269 142.04 222.289C142.731 222.595 144.693 223.294 145.977 223.625C146.368 223.683 146.882 223.704 147.493 223.688C145.12 223.256 142.816 222.595 141.906 222.224ZM153.279 222.908C156.379 222.237 159.775 221.134 162.324 219.598C166.858 213.979 168.996 203.343 168.292 199.678C168.899 206.345 161.643 218.523 153.279 222.908ZM158.427 188.011C158.694 188.142 158.946 188.274 159.18 188.401C158.947 188.278 158.672 188.135 158.427 188.011ZM152.627 186.459C151.638 186.28 150.638 186.14 149.723 186.079C148.77 186.354 147.822 186.746 146.888 187.234C149.088 186.759 151.137 186.501 152.627 186.459Z" fill="#9D9D9D"/>
<path fill-rule="evenodd" clip-rule="evenodd" d="M151.414 207.326C152.208 207.091 153.043 207.544 153.278 208.338C154.02 210.843 155.364 212.742 156.925 214.736C157.116 214.98 157.312 215.227 157.51 215.478C158.898 217.229 160.419 219.149 161.52 221.535C161.61 221.73 161.713 221.935 161.825 222.145C161.967 222.035 162.132 221.95 162.314 221.896C163.109 221.66 163.943 222.113 164.179 222.908C164.38 223.589 164.521 224.163 164.6 224.635C164.67 225.058 164.723 225.574 164.612 226.046C164.553 226.295 164.412 226.695 164.039 227.015C163.619 227.378 163.118 227.458 162.718 227.407C162.366 227.361 162.092 227.219 161.926 227.118C161.747 227.009 161.59 226.881 161.46 226.764C160.97 226.32 160.455 225.636 160.019 224.973C159.567 224.285 159.125 223.504 158.796 222.793C157.855 220.754 156.571 219.129 155.172 217.358C154.971 217.104 154.767 216.847 154.562 216.585C152.961 214.539 151.313 212.268 150.402 209.19C150.166 208.396 150.62 207.561 151.414 207.326Z" fill="#9D9D9D"/>
<path fill-rule="evenodd" clip-rule="evenodd" d="M160.197 209.474C160.062 208.897 159.588 208.431 158.966 208.334C158.147 208.208 157.381 208.769 157.254 209.587C156.735 212.941 156.943 217.678 158.347 221.171C158.405 221.315 158.492 221.505 158.621 221.689C158.716 221.824 159.025 222.236 159.611 222.37C160.364 222.542 160.909 222.138 161.146 221.876C161.357 221.641 161.462 221.391 161.509 221.267C161.691 220.79 161.772 220.086 161.823 219.533C161.914 218.552 161.961 217.309 161.992 216.456C162.001 216.238 162.008 216.045 162.015 215.889C162.032 215.481 161.988 214.957 161.951 214.516C161.949 214.494 161.947 214.473 161.945 214.451C161.903 213.945 161.861 213.448 161.856 212.979C161.851 212.496 161.888 212.157 161.947 211.952C161.95 211.941 161.953 211.932 161.956 211.923C162.592 211.537 162.857 210.729 162.546 210.031C162.208 209.274 161.322 208.935 160.565 209.272C160.432 209.331 160.31 209.399 160.197 209.474ZM161.983 211.853C161.983 211.853 161.983 211.855 161.98 211.858C161.982 211.854 161.983 211.853 161.983 211.853ZM161.138 220.069C161.138 220.069 161.137 220.067 161.136 220.063C161.137 220.067 161.138 220.069 161.138 220.069Z" fill="#9D9D9D"/>
<path fill-rule="evenodd" clip-rule="evenodd" d="M156.034 191.52C153.19 187.021 147.279 185.521 142.615 188.192C137.823 190.936 136.162 197.046 138.907 201.839C140.873 205.272 143.618 207.263 145.116 208.309C145.594 208.643 145.88 208.837 146.108 208.991C146.369 209.167 146.554 209.293 146.865 209.519C147.221 209.778 147.329 209.886 147.335 209.892C150.247 212.931 153.834 216.177 158.178 218.695C162.955 221.465 169.074 219.838 171.845 215.06C174.615 210.282 172.987 204.163 168.21 201.393C166.111 200.177 164 198.376 161.775 196.054C160.655 194.886 159.529 194 158.643 193.355C158.201 193.033 157.779 192.742 157.44 192.511C157.335 192.439 157.241 192.375 157.154 192.315C156.931 192.163 156.757 192.045 156.57 191.915C156.308 191.731 156.137 191.601 156.034 191.52Z" fill="#9D9D9D"/>
<path fill-rule="evenodd" clip-rule="evenodd" d="M157.627 209.427C154.827 208.061 151.433 208.02 148.483 209.612C143.624 212.236 141.811 218.303 144.435 223.162C145.208 224.595 146.346 226.014 147.941 227.143C149.522 228.262 151.128 228.795 152.428 229.043C153.643 229.276 154.669 229.273 155.172 229.263C155.433 229.257 155.668 229.246 155.785 229.241L155.793 229.24C155.81 229.24 155.825 229.239 155.838 229.238C155.882 229.236 155.907 229.235 155.936 229.234C155.958 229.233 155.968 229.232 155.97 229.232" fill="#9D9D9D"/>
<path fill-rule="evenodd" clip-rule="evenodd" d="M145.276 218.419C145.276 218.421 145.276 218.423 145.276 218.425C145.28 218.515 145.318 218.65 145.391 218.845C145.406 218.886 145.424 218.931 145.443 218.98C145.499 219.124 145.565 219.294 145.604 219.435C145.631 219.533 145.659 219.665 145.652 219.805C145.644 219.954 145.59 220.155 145.408 220.305C145.255 220.431 145.087 220.427 145.034 220.424C144.964 220.42 144.905 220.404 144.87 220.393C144.795 220.37 144.72 220.335 144.658 220.305C144.53 220.241 144.379 220.153 144.239 220.067C144.209 220.049 144.18 220.03 144.151 220.012C144.101 219.984 144.053 219.956 144.008 219.929C143.892 219.858 143.785 219.787 143.709 219.734C143.671 219.708 143.639 219.685 143.617 219.67L143.59 219.65L143.576 219.639L143.567 219.632L143.567 219.632C143.566 219.631 143.554 219.621 143.54 219.609C143.536 219.604 143.524 219.593 143.518 219.587C143.507 219.575 143.479 219.54 143.462 219.515C143.424 219.445 143.398 219.116 143.524 218.894C143.698 218.778 143.966 218.75 144.027 218.765C144.051 218.773 144.088 218.788 144.1 218.794C144.108 218.798 144.121 218.804 144.126 218.807C144.136 218.813 144.143 218.817 144.146 218.819C144.171 218.834 144.219 218.866 144.277 218.904C144.308 218.924 144.341 218.946 144.375 218.968C144.327 218.815 144.285 218.644 144.277 218.474C144.263 218.188 144.345 217.833 144.691 217.606C145.387 217.148 146.329 217.206 147.102 217.33C147.508 217.395 147.912 217.487 148.272 217.57L148.297 217.576C148.656 217.658 148.959 217.728 149.206 217.764C149.302 217.778 149.416 217.792 149.54 217.806C149.915 217.851 150.39 217.907 150.801 218.03C151.373 218.201 151.996 218.547 152.222 219.31C152.228 219.331 152.247 219.379 152.285 219.477L152.285 219.477C152.318 219.563 152.36 219.672 152.399 219.783C152.436 219.891 152.475 220.019 152.498 220.141C152.509 220.202 152.519 220.276 152.518 220.354C152.518 220.425 152.508 220.541 152.448 220.66C152.381 220.792 152.274 220.941 152.103 221.031C151.912 221.132 151.714 221.123 151.556 221.063C151.415 221.01 151.312 220.919 151.246 220.849C151.176 220.774 151.121 220.693 151.08 220.62C151.016 220.506 150.813 220.092 150.668 219.794C150.593 219.641 150.529 219.509 150.5 219.448C150.494 219.434 150.486 219.418 150.481 219.407C150.48 219.405 150.476 219.396 150.472 219.385C150.471 219.382 150.469 219.376 150.466 219.369C150.464 219.364 150.459 219.35 150.454 219.33C150.451 219.32 150.446 219.293 150.443 219.277C150.439 219.248 150.439 219.156 150.448 219.094C150.461 219.062 150.485 219.026 150.517 218.988C150.516 218.988 150.515 218.988 150.514 218.988C150.194 218.892 149.857 218.852 149.507 218.811C149.361 218.793 149.212 218.776 149.061 218.754C148.773 218.711 148.434 218.633 148.097 218.556C148.08 218.552 148.064 218.548 148.048 218.544C147.684 218.461 147.311 218.376 146.944 218.317C146.197 218.197 145.625 218.213 145.276 218.419Z" fill="#9D9D9D"/>
</svg>
