<svg width="212" height="321" viewBox="0 0 212 321" fill="none" xmlns="http://www.w3.org/2000/svg">
<path fill-rule="evenodd" clip-rule="evenodd" d="M121.51 37.2358C127.02 43.4531 131.721 50.2606 135.236 56.2659L102.441 75.4617C99.9698 71.2396 96.6825 66.5146 93.0699 62.4379C89.4291 58.3293 86.2671 55.7981 84.0555 54.6279C83.2037 55.7195 81.8581 57.8292 80.2978 61.6896C78.4275 66.3167 78.7896 75.504 86.3945 90.8121C93.5763 105.269 105.249 121.184 118.268 136.393C131.159 151.454 144.744 165.102 155.153 174.999C160.342 179.932 164.695 183.89 167.717 186.576C169.23 187.921 170.39 188.929 171.137 189.569C171.311 189.718 171.453 189.839 171.566 189.935C171.895 190.182 172.154 190.392 172.272 190.489C172.645 190.792 173.031 191.122 173.394 191.441C174.149 192.102 175.115 192.984 176.221 194.052C178.427 196.18 181.37 199.219 184.428 202.928C190.068 209.767 198.155 221.312 200.163 235.015C201.236 242.336 200.607 250.567 196.69 258.647C192.801 266.671 186.377 273.088 178.279 278.045C162.756 287.545 138.949 292.999 105.214 294.696C78.6155 296.033 57.2781 293.745 43.3872 284.865C35.5579 279.86 29.7192 272.499 27.6473 263.049C25.71 254.214 27.5793 245.865 30.2472 239.218C35.431 226.301 46.0837 213.768 56.6294 203.405C67.5944 192.629 80.2832 182.44 91.6981 174.299L113.762 205.238C103.547 212.523 92.4815 221.45 83.2642 230.508C73.6276 239.978 67.6702 247.996 65.5131 253.371C65.4752 253.465 65.4394 253.557 65.4057 253.645C69.8233 255.537 80.7192 257.879 103.306 256.743C135.226 255.138 151.207 250.061 158.442 245.633C161.722 243.626 162.419 242.231 162.496 242.072L162.501 242.061C162.557 241.947 162.724 241.61 162.565 240.526C162.098 237.343 159.511 232.44 155.11 227.103C153.147 224.723 151.229 222.742 149.835 221.397C149.231 220.814 148.76 220.384 148.466 220.123C148.396 220.069 148.347 220.031 148.326 220.014C148.05 219.8 147.799 219.593 147.652 219.472C147.309 219.189 146.887 218.833 146.42 218.432C145.465 217.614 144.127 216.449 142.471 214.977C139.155 212.03 134.487 207.784 128.969 202.538C117.966 192.077 103.401 177.461 89.3996 161.104C75.5257 144.896 61.5632 126.239 52.3627 107.719C43.5852 90.0503 36.8181 67.8569 45.0669 47.4492C49.9362 35.4026 57.1989 24.7416 68.4518 19.3967C80.4839 13.6817 92.261 16.2301 100.858 20.5403C109.157 24.7012 116.157 31.1942 121.51 37.2358ZM151.906 222.224C151.953 222.247 151.998 222.269 152.04 222.289C152.731 222.595 154.693 223.294 155.977 223.625C156.368 223.683 156.882 223.704 157.493 223.688C155.12 223.256 152.816 222.595 151.906 222.224ZM163.279 222.908C166.379 222.237 169.775 221.134 172.324 219.598C176.858 213.979 178.996 203.343 178.292 199.678C178.899 206.345 171.643 218.523 163.279 222.908ZM168.427 188.011C168.694 188.142 168.946 188.274 169.18 188.401C168.947 188.278 168.672 188.135 168.427 188.011ZM162.627 186.459C161.638 186.28 160.638 186.14 159.723 186.079C158.77 186.354 157.822 186.746 156.888 187.234C159.088 186.759 161.137 186.501 162.627 186.459Z" fill="#D9D9D9"/>
<path fill-rule="evenodd" clip-rule="evenodd" d="M151.675 210.885C152.44 210.568 153.318 210.931 153.635 211.697C154.319 213.348 155.487 214.804 156.889 216.335C157.211 216.686 157.549 217.046 157.896 217.414C158.998 218.584 160.178 219.838 161.138 221.169C161.725 221.983 163.021 223.541 164.387 224.935C165.068 225.63 165.739 226.256 166.325 226.719C166.618 226.95 166.869 227.125 167.073 227.244C167.269 227.358 167.367 227.388 167.38 227.392C167.381 227.393 167.382 227.393 167.381 227.393C168.193 227.556 168.719 228.347 168.556 229.159C168.392 229.971 167.602 230.497 166.789 230.334C165.962 230.167 165.125 229.595 164.465 229.073C163.741 228.501 162.971 227.777 162.244 227.034C160.792 225.552 159.395 223.88 158.705 222.924C157.87 221.766 156.883 220.717 155.816 219.583C155.445 219.189 155.064 218.784 154.676 218.361C153.233 216.784 151.759 215.007 150.863 212.845C150.546 212.079 150.91 211.202 151.675 210.885Z" fill="#D9D9D9"/>
<path fill-rule="evenodd" clip-rule="evenodd" d="M162.656 211.121C163.451 210.886 164.285 211.339 164.521 212.133C165.189 214.39 166.289 216.142 167.607 217.868C168.046 218.443 168.535 219.045 169.046 219.673C170.001 220.848 171.03 222.114 171.937 223.458C172.4 224.144 172.218 225.077 171.532 225.54C170.845 226.003 169.912 225.822 169.449 225.135C168.604 223.881 167.746 222.829 166.857 221.74C166.325 221.087 165.781 220.42 165.223 219.689C163.792 217.814 162.458 215.731 161.644 212.985C161.409 212.191 161.862 211.356 162.656 211.121Z" fill="#D9D9D9"/>
<path fill-rule="evenodd" clip-rule="evenodd" d="M164.736 210.115C165.074 210.872 164.734 211.759 163.977 212.096C163.977 212.096 163.977 212.096 163.976 212.096C163.962 212.102 163.74 212.19 163.668 212.986C163.597 213.767 163.723 214.834 163.992 216.059C164.375 217.806 164.952 219.508 165.393 220.809C165.581 221.366 165.745 221.849 165.858 222.231C166.093 223.025 165.64 223.86 164.846 224.095C164.052 224.33 163.217 223.877 162.982 223.083C162.913 222.852 162.79 222.487 162.635 222.028C162.19 220.713 161.484 218.625 161.061 216.702C160.772 215.382 160.567 213.957 160.68 212.714C160.791 211.502 161.261 210.023 162.755 209.356C163.512 209.019 164.399 209.359 164.736 210.115Z" fill="#D9D9D9"/>
<path fill-rule="evenodd" clip-rule="evenodd" d="M143.486 194.943C147.603 191.262 153.925 191.615 157.606 195.732C158.675 196.929 160.068 198.185 161.993 199.879C162.105 199.978 162.22 200.079 162.336 200.181C164.034 201.674 166.157 203.541 168.036 205.549C168.436 205.977 168.859 206.442 169.241 206.862C169.289 206.915 169.337 206.968 169.383 207.019C169.824 207.503 170.238 207.957 170.656 208.4C171.35 209.137 171.945 209.727 172.458 210.183C176.399 210.057 180.209 212.284 181.914 216.108C184.163 221.152 181.897 227.064 176.853 229.313C172.874 231.087 169.038 230.583 166.266 229.58C163.662 228.639 161.553 227.124 160.083 225.912C157.79 224.022 155.476 221.466 154.147 219.998C153.858 219.678 153.616 219.41 153.43 219.212C152.236 217.936 150.78 216.654 148.835 214.941L148.778 214.892C146.981 213.309 144.689 211.292 142.697 209.063C139.015 204.946 139.369 198.625 143.486 194.943Z" fill="#D9D9D9"/>
<path fill-rule="evenodd" clip-rule="evenodd" d="M161.44 213.965C159.871 208.669 162.893 203.105 168.188 201.537L168.319 201.498C173.615 199.929 179.179 202.95 180.748 208.246C182.316 213.541 179.295 219.105 174 220.674L173.868 220.713C168.573 222.282 163.008 219.26 161.44 213.965Z" fill="#D9D9D9"/>
<path fill-rule="evenodd" clip-rule="evenodd" d="M147.402 154.836C147.277 154.859 147.158 154.887 147.044 154.921C146.818 154.988 146.675 155.2 146.687 155.426C146.629 155.488 146.574 155.551 146.523 155.615C146.449 155.707 146.377 155.811 146.32 155.919C146.269 156.017 146.205 156.167 146.205 156.34C146.206 156.552 146.305 156.77 146.524 156.898C146.699 157 146.894 157.009 147.04 157.001C147.492 156.975 147.886 156.807 148.206 156.654C148.292 156.613 148.371 156.574 148.446 156.537C148.673 156.424 148.855 156.334 149.05 156.277L150.369 155.886C150.437 155.868 150.501 155.848 150.563 155.829C150.592 155.82 150.621 155.811 150.649 155.803L150.756 155.771L150.472 154.812L150.223 154.886C149.992 154.954 149.934 154.964 149.811 154.932C149.269 154.79 148.548 154.722 147.883 154.774C147.786 154.739 147.677 154.733 147.57 154.765C147.51 154.783 147.453 154.808 147.402 154.836Z" fill="#D9D9D9"/>
<path fill-rule="evenodd" clip-rule="evenodd" d="M148.678 155.035C148.765 155.013 148.842 154.993 148.917 154.97C149.388 154.831 149.852 154.879 150.211 154.916C150.222 154.917 150.233 154.918 150.244 154.919C150.639 154.96 150.919 154.982 151.185 154.904C151.45 154.825 151.728 154.976 151.806 155.241C151.885 155.506 151.734 155.784 151.469 155.862C150.997 156.002 150.533 155.954 150.174 155.917C150.163 155.916 150.152 155.915 150.142 155.914C149.746 155.873 149.466 155.851 149.201 155.929C149.108 155.957 149.013 155.982 148.927 156.004C148.912 156.008 148.897 156.012 148.882 156.016C148.781 156.042 148.691 156.066 148.607 156.094C148.439 156.149 148.325 156.207 148.241 156.282C148.073 156.432 147.841 156.571 147.598 156.619C147.476 156.643 147.304 156.654 147.129 156.58C146.932 156.496 146.798 156.333 146.74 156.137C146.661 155.872 146.812 155.594 147.077 155.515C147.23 155.47 147.387 155.501 147.508 155.587C147.532 155.571 147.555 155.554 147.576 155.535C147.806 155.33 148.067 155.218 148.297 155.143C148.411 155.106 148.526 155.075 148.629 155.048C148.646 155.044 148.662 155.04 148.678 155.035Z" fill="#D9D9D9"/>
<path fill-rule="evenodd" clip-rule="evenodd" d="M173.696 200.593C173.725 200.647 173.748 200.706 173.767 200.757C173.91 201.153 174.025 201.57 174.129 201.951C174.178 202.128 174.224 202.297 174.27 202.453C174.37 202.789 174.341 203.268 174.244 203.658C174.194 203.862 174.116 204.078 174.001 204.264C173.895 204.435 173.726 204.632 173.468 204.723C173.465 204.927 173.482 205.102 173.525 205.245C173.603 205.509 173.452 205.788 173.187 205.866C172.922 205.944 172.644 205.793 172.566 205.529C172.437 205.093 172.457 204.602 172.506 204.177C172.538 203.898 172.59 203.598 172.635 203.341C172.657 203.215 172.678 203.099 172.693 203C172.713 202.87 172.72 202.643 172.716 202.354C172.713 202.145 172.705 201.925 172.698 201.714C172.696 201.641 172.693 201.569 172.691 201.498C172.683 201.247 172.676 200.979 172.695 200.82C172.699 200.783 172.709 200.704 172.742 200.624C172.757 200.587 172.799 200.493 172.895 200.413C173.022 200.308 173.204 200.262 173.381 200.32C173.516 200.364 173.594 200.451 173.622 200.484C173.657 200.526 173.681 200.566 173.696 200.593ZM173.689 200.929C173.689 200.929 173.689 200.931 173.688 200.934C173.689 200.93 173.689 200.929 173.689 200.929Z" fill="#D9D9D9"/>
</svg>
