<svg width="232" height="80" viewBox="0 0 232 80" fill="none" xmlns="http://www.w3.org/2000/svg">
<path d="M220.727 15.4973L217.279 3.85913L218.746 3.42459L220.205 8.34717L221.998 7.81606C223.084 7.49418 223.981 7.3882 224.687 7.49812C225.404 7.60483 225.967 7.86949 226.376 8.2921C226.796 8.71149 227.097 9.23089 227.281 9.85029C227.484 10.5349 227.514 11.176 227.372 11.7736C227.241 12.3681 226.913 12.8967 226.388 13.3595C225.863 13.8222 225.122 14.1953 224.166 14.4785L220.727 15.4973ZM223.669 13.2784C224.603 13.0015 225.24 12.6178 225.58 12.1273C225.919 11.6367 225.981 11.0274 225.765 10.2993C225.617 9.79945 225.391 9.43501 225.087 9.20599C224.793 8.97374 224.41 8.8568 223.937 8.85515C223.463 8.85351 222.89 8.95247 222.216 9.15204L220.586 9.63487L221.827 13.8239L223.669 13.2784ZM230.083 12.7259L226.636 1.08771L228.103 0.653167L231.55 12.2913L230.083 12.7259Z" fill="#275CB3"/>
<path d="M201.265 21.2623L199.798 21.6968L196.732 11.3463L193.048 12.4375C193.149 13.0577 193.254 13.7121 193.363 14.4007C193.47 15.0785 193.569 15.7524 193.661 16.4225C193.764 17.0894 193.856 17.7182 193.936 18.3091C194.016 18.8999 194.076 19.4201 194.115 19.8696C194.189 20.6395 194.199 21.3104 194.143 21.8823C194.088 22.4542 193.925 22.922 193.655 23.2858C193.395 23.6464 192.988 23.9088 192.434 24.073C192.249 24.1277 192.053 24.1623 191.844 24.1767C191.65 24.1989 191.474 24.2037 191.317 24.1912L190.955 22.9687C191.09 22.9876 191.241 22.9963 191.406 22.9947C191.567 22.9822 191.735 22.9502 191.909 22.8987C192.235 22.8022 192.452 22.5961 192.559 22.2806C192.674 21.951 192.728 21.5745 192.721 21.1511C192.711 20.7169 192.686 20.2929 192.646 19.8791C192.618 19.5447 192.57 19.1038 192.502 18.5565C192.431 17.9982 192.34 17.3515 192.229 16.6162C192.128 15.8777 192.01 15.0794 191.874 14.2213C191.746 13.3492 191.602 12.4461 191.444 11.5119L197.817 9.6241L201.265 21.2623Z" fill="#275CB3"/>
<path d="M173.479 29.4927L171.01 26.3056L166.397 27.672L166.078 31.6847L164.595 32.1241L165.681 19.0899L167.001 18.6988L174.994 29.0436L173.479 29.4927ZM167.836 21.9975C167.778 21.9202 167.677 21.7787 167.533 21.573C167.39 21.3674 167.244 21.1563 167.098 20.9397C166.958 20.7091 166.848 20.535 166.766 20.4175C166.776 20.6509 166.782 20.8914 166.784 21.1389C166.794 21.3724 166.794 21.5911 166.784 21.7951C166.784 21.996 166.782 22.168 166.777 22.3113L166.5 26.2232L170.183 25.132L167.836 21.9975Z" fill="#275CB3"/>
<path d="M133.934 28.5471L135.303 28.1415L137.196 34.5311C137.276 34.8028 137.359 35.1032 137.445 35.4324C137.538 35.7476 137.626 36.0643 137.709 36.3827C137.791 36.701 137.858 36.9884 137.911 37.2448C137.971 37.487 138.015 37.675 138.042 37.8086L138.107 37.7893L141.66 26.2585L143.29 25.7757L146.737 37.4139L145.368 37.8194L143.495 31.495C143.408 31.2017 143.32 30.8849 143.231 30.5448C143.139 30.1939 143.051 29.8592 142.969 29.5409C142.894 29.2084 142.825 28.9156 142.762 28.6625C142.699 28.4093 142.655 28.2214 142.63 28.0986L142.565 28.118L139.011 39.7024L137.381 40.1853L133.934 28.5471Z" fill="#275CB3"/>
<path d="M110.829 35.3912C112.35 34.9405 113.547 34.911 114.42 35.3027C115.292 35.6944 115.889 36.4335 116.211 37.5202C116.353 37.9983 116.408 38.4843 116.377 38.9781C116.354 39.4578 116.214 39.9247 115.959 40.3786C115.703 40.8326 115.307 41.2513 114.771 41.6348C114.231 42.0074 113.526 42.3225 112.657 42.58L111.32 42.9759L112.663 47.5073L111.196 47.9419L107.748 36.3037L110.829 35.3912ZM111.07 36.6849L109.587 37.1243L110.949 41.7208L112.122 41.3732C112.861 41.1543 113.453 40.8964 113.897 40.5994C114.337 40.2916 114.626 39.9284 114.762 39.5098C114.898 39.0913 114.882 38.5995 114.715 38.0344C114.493 37.2846 114.088 36.7958 113.5 36.568C112.913 36.3401 112.103 36.3791 111.07 36.6849Z" fill="#275CB3"/>
<path d="M92.3422 53.5264L85.8385 55.4529L82.3911 43.8147L88.8948 41.8882L89.2762 43.1759L84.2395 44.6678L85.3162 48.3027L90.0595 46.8977L90.4361 48.1691L85.6928 49.5741L86.9241 53.7306L91.9607 52.2387L92.3422 53.5264Z" fill="#275CB3"/>
<path d="M64.165 61.873L62.698 62.3075L59.6321 51.9571L55.9972 53.0338L55.6158 51.7461L64.3363 49.163L64.7177 50.4507L61.0991 51.5225L64.165 61.873Z" fill="#275CB3"/>
<path d="M42.2195 68.3735L39.7506 65.1865L35.1378 66.5529L34.8193 70.5656L33.336 71.0049L34.4218 57.9708L35.7421 57.5797L43.7354 67.9245L42.2195 68.3735ZM36.5774 60.8783C36.519 60.801 36.418 60.6596 36.2744 60.4539C36.1307 60.2482 35.9854 60.0371 35.8385 59.8206C35.6993 59.59 35.5886 59.4159 35.5066 59.2984C35.5166 59.5318 35.5228 59.7723 35.5252 60.0198C35.5353 60.2532 35.535 60.4719 35.5246 60.676C35.5249 60.8768 35.5227 61.0489 35.5179 61.1921L35.2405 65.104L38.9243 64.0128L36.5774 60.8783Z" fill="#275CB3"/>
<path d="M8.96391 78.2242L2.11093 69.1551L2.04573 69.1744C2.13184 69.3853 2.23022 69.6575 2.34087 69.9912C2.46239 70.3216 2.58813 70.6863 2.71809 71.0851C2.84484 71.4731 2.96937 71.8735 3.09169 72.2865L5.18232 79.3443L3.82943 79.7451L0.38205 68.1069L2.54994 67.4648L8.96046 75.938L9.02566 75.9187L9.85231 65.3017L12.0039 64.6644L15.4513 76.3025L14.0006 76.7323L11.881 69.5766C11.7683 69.1962 11.6627 68.8197 11.5641 68.4471C11.4623 68.0635 11.374 67.7055 11.2992 67.3731C11.2211 67.0298 11.1538 66.7424 11.097 66.511L11.0318 66.5303L10.1701 77.8669L8.96391 78.2242Z" fill="#275CB3"/>
</svg>
