<svg width="246" height="78" viewBox="0 0 246 78" fill="none" xmlns="http://www.w3.org/2000/svg">
<path d="M238.133 2.16841C239.666 1.75776 240.863 1.75961 241.725 2.17397C242.587 2.58833 243.165 3.34288 243.458 4.43759C243.587 4.91927 243.63 5.40652 243.586 5.89935C243.55 6.37831 243.398 6.84134 243.131 7.28844C242.863 7.73555 242.456 8.14377 241.91 8.5131C241.361 8.87147 240.648 9.168 239.772 9.40266L238.426 9.76345L239.649 14.3284L238.171 14.7244L235.03 3L238.133 2.16841ZM238.341 3.46801L236.846 3.8684L238.087 8.49905L239.269 8.18226C240.014 7.9828 240.612 7.74043 241.063 7.45518C241.512 7.15897 241.81 6.80345 241.957 6.38861C242.104 5.97377 242.101 5.48172 241.948 4.91247C241.746 4.15711 241.354 3.65787 240.773 3.41473C240.191 3.17159 239.381 3.18935 238.341 3.46801Z" fill="black"/>
<path d="M212.899 21.4959L206.348 23.2515L203.206 11.5271L209.758 9.77153L210.105 11.0688L205.031 12.4283L206.013 16.0902L210.791 14.8098L211.134 16.0906L206.356 17.371L207.478 21.5583L212.552 20.1987L212.899 21.4959Z" fill="black"/>
<path d="M171.155 26.2225L165.079 21.7432L166.721 21.3032L172.726 25.7836L171.204 20.1021L172.616 19.7237L174.139 25.4052L177.099 18.5225L178.741 18.0825L175.715 24.9829L182.031 29.7673L180.339 30.2205L174.165 25.5038L175.758 31.4481L174.346 31.8265L172.753 25.8822L169.748 33.0584L168.057 33.5116L171.155 26.2225Z" fill="black"/>
<path d="M143.803 40.0104L141.418 36.7598L136.771 38.0049L136.348 42.0079L134.853 42.4083L136.28 29.4071L137.61 29.0507L145.33 39.6012L143.803 40.0104ZM138.359 32.37C138.302 32.2912 138.205 32.1472 138.067 31.9378C137.929 31.7285 137.789 31.5136 137.648 31.2933C137.515 31.0591 137.409 30.8822 137.33 30.7626C137.334 30.9962 137.333 31.2368 137.329 31.4842C137.333 31.7179 137.327 31.9365 137.312 32.1402C137.307 32.341 137.3 32.5129 137.291 32.656L136.912 36.5593L140.623 35.5649L138.359 32.37Z" fill="black"/>
<path d="M110.541 48.9228L109.064 49.3188L107.598 43.8506L101.588 45.461L103.054 50.9291L101.576 51.3251L98.4341 39.6007L99.912 39.2047L101.241 44.1638L107.251 42.5534L105.922 37.5943L107.4 37.1983L110.541 48.9228Z" fill="black"/>
<path d="M76.3039 58.0966L69.752 59.8522L66.6105 48.1278L73.1623 46.3722L73.5099 47.6695L68.4359 49.0291L69.4171 52.6909L74.1956 51.4105L74.5387 52.6913L69.7603 53.9717L70.8823 58.159L75.9563 56.7994L76.3039 58.0966Z" fill="black"/>
<path d="M37.0725 56.0424C38.6051 55.6318 39.8024 55.6336 40.6643 56.048C41.5263 56.4624 42.1039 57.2169 42.3972 58.3116C42.5263 58.7933 42.5689 59.2805 42.5249 59.7734C42.489 60.2523 42.3373 60.7154 42.0699 61.1625C41.8025 61.6096 41.3957 62.0178 40.8493 62.3871C40.3 62.7455 39.5875 63.042 38.7117 63.2767L37.3652 63.6375L38.5884 68.2024L37.1105 68.5984L33.969 56.874L37.0725 56.0424ZM37.2799 57.342L35.7856 57.7424L37.0264 62.3731L38.2087 62.0563C38.9531 61.8568 39.5511 61.6145 40.0026 61.3292C40.4513 61.033 40.7491 60.6775 40.896 60.2626C41.043 59.8478 41.0402 59.3557 40.8877 58.7865C40.6853 58.0311 40.2934 57.5319 39.712 57.2887C39.1306 57.0456 38.3199 57.0634 37.2799 57.342Z" fill="black"/>
<path d="M8.99791 76.1313L7.52005 76.5273L4.72609 66.1001L1.06427 67.0813L0.716675 65.7841L9.50177 63.4301L9.84937 64.7273L6.20396 65.7041L8.99791 76.1313Z" fill="black"/>
</svg>
