<svg width="196" height="83" viewBox="0 0 196 83" fill="none" xmlns="http://www.w3.org/2000/svg">
<path d="M176.155 26.1834L158.461 7.77991L164.193 6.24407L177.215 20.1848L181.388 1.63658L187.076 0.112648L180.821 24.9333L183.666 35.5527L179.001 36.8028L176.155 26.1834Z" fill="#275CB3"/>
<path d="M115.792 53.7395L107.16 21.5259L116.091 19.1328C119.291 18.2756 122.132 18.0381 124.615 18.4204C127.091 18.773 129.243 19.5774 131.072 20.8335C132.893 22.06 134.376 23.5675 135.522 25.3558C136.698 27.1363 137.547 29.004 138.071 30.959C138.714 33.3584 138.868 35.6507 138.533 37.8359C138.219 39.9835 137.49 41.941 136.344 43.7084C135.228 45.4679 133.807 46.9759 132.08 48.2323C130.345 49.4591 128.411 50.3583 126.278 50.9298L115.792 53.7395ZM119.211 48.0136L124.187 46.6802C126.527 46.0532 128.482 45.0532 130.05 43.6804C131.619 42.3076 132.692 40.6233 133.268 38.6274C133.874 36.6236 133.848 34.3924 133.189 31.9338C132.649 29.9195 131.844 28.2779 130.774 27.009C129.726 25.7026 128.526 24.7222 127.176 24.068C125.818 23.3841 124.395 22.9878 122.905 22.879C121.416 22.7701 119.96 22.9062 118.538 23.2872L112.984 24.7754L119.211 48.0136Z" fill="#275CB3"/>
<path d="M61.5123 55.9495C61.8774 57.3121 62.5366 58.4689 63.4899 59.4199C64.4649 60.3334 65.6173 60.9612 66.9471 61.3033C68.277 61.6454 69.6381 61.63 71.0303 61.2569C72.5114 60.8601 73.7422 60.181 74.7228 59.2198C75.7035 58.2586 76.3728 57.1427 76.7308 55.872C77.1105 54.5639 77.1178 53.2285 76.7527 51.8659L71.2046 31.1603L75.7812 29.934L81.365 50.7729C81.992 53.113 81.9956 55.3185 81.3758 57.3895C80.7481 59.4309 79.6321 61.1903 78.0279 62.6679C76.4533 64.1375 74.5255 65.1779 72.2447 65.7891C69.9638 66.4002 67.7593 66.467 65.6312 65.9896C63.5327 65.5042 61.7013 64.5344 60.1371 63.0804C58.5944 61.5889 57.5096 59.673 56.8826 57.3329L51.2988 36.494L55.9642 35.2439L61.5123 55.9495Z" fill="#275CB3"/>
<path d="M0.872223 50.0057L22.3332 44.2553L23.5356 48.743L15.0046 51.0289L22.4337 78.7548L17.7683 80.0049L10.3392 52.279L2.0747 54.4934L0.872223 50.0057Z" fill="#275CB3"/>
</svg>
